<?xml version="1.0" standalone="no"?>
<!DOCTYPE svg PUBLIC "-//W3C//DTD SVG 20010904//EN"
 "http://www.w3.org/TR/2001/REC-SVG-20010904/DTD/svg10.dtd">
<svg version="1.0" xmlns="http://www.w3.org/2000/svg"
 width="600.000000pt" height="450.000000pt" viewBox="0 0 600.000000 450.000000"
 preserveAspectRatio="xMidYMid meet">

<g transform="translate(0.000000,450.000000) scale(0.100000,-0.100000)"
fill="#000000" stroke="none">
<path d="M623 4312 l-423 -2 0 -1028 c-1 -2462 0 -3076 6 -3081 3 -3 1260 -6
2795 -7 l2789 -2 0 2065 0 2066 -87 -7 -86 -7 -126 -97 c-69 -53 -139 -107
-157 -119 -17 -12 -128 -96 -247 -186 -142 -108 -211 -167 -202 -171 11 -4 15
-23 15 -80 l0 -74 57 -51 c57 -51 57 -51 44 -84 -48 -120 -46 -112 -26 -156
10 -23 20 -41 23 -41 2 0 26 20 52 43 27 24 133 109 237 187 103 79 225 173
270 208 l83 64 0 -1706 0 -1706 -2650 0 -2650 0 0 1915 0 1915 1146 0 1146 0
226 -173 c125 -95 277 -211 337 -257 61 -47 187 -143 280 -214 94 -71 205
-157 248 -193 42 -35 81 -62 86 -59 5 3 14 19 21 35 11 27 9 37 -20 98 l-32
68 61 55 61 55 0 73 c0 65 2 74 20 79 28 8 25 14 -23 48 -23 16 -192 142 -376
279 l-335 250 -1070 0 c-589 1 -1261 0 -1493 -2z m140 -119 l-443 -3 0 -1935
0 -1935 363 -3 362 -2 -367 -3 -368 -2 0 1945 0 1945 448 -2 447 -3 -442 -2z
m4917 -2153 l0 -1730 -1242 2 -1243 3 1233 2 1232 3 0 23 c0 12 0 784 0 1716
0 931 3 1697 6 1702 3 5 7 9 10 9 2 0 4 -778 4 -1730z"/>
<path d="M3255 4310 c-9 -3 85 -79 242 -195 141 -105 304 -227 362 -272 141
-110 169 -110 227 -4 20 36 37 67 38 68 1 1 34 -5 75 -12 l73 -14 45 32 c25
18 54 38 64 45 15 12 24 9 71 -25 29 -22 58 -42 64 -46 6 -4 44 0 83 7 81 16
68 23 124 -75 22 -38 34 -48 67 -57 47 -12 22 -27 375 234 127 94 255 189 286
212 31 22 60 38 64 34 5 -4 6 -2 2 3 -3 6 10 21 29 34 19 13 32 27 28 30 -7 7
-2298 8 -2319 1z"/>
<path d="M4315 3829 c-66 -10 -180 -63 -235 -110 -32 -28 -33 -30 -10 -25 14
3 19 3 13 0 -21 -9 -103 -123 -123 -168 -45 -106 -52 -236 -18 -342 12 -38 20
-76 19 -84 -2 -8 1 -12 5 -7 10 10 56 -68 52 -90 -2 -13 3 -17 18 -16 16 2 24
-5 28 -23 4 -15 9 -24 12 -21 3 3 16 -6 30 -20 40 -40 147 -84 230 -95 55 -7
78 -7 83 1 4 6 42 20 85 31 102 26 172 67 240 141 92 100 129 192 128 328 -1
221 -151 407 -377 466 -63 16 -79 24 -49 26 15 1 13 3 -6 9 -31 10 -50 10
-125 -1z m214 -78 c123 -38 217 -119 271 -232 61 -130 62 -256 1 -384 -104
-223 -377 -319 -596 -211 -166 82 -266 252 -252 431 6 75 35 165 67 205 13 16
9 3 -10 -35 -78 -154 -59 -336 49 -472 134 -170 388 -214 570 -99 228 145 274
464 94 657 -97 104 -168 138 -313 149 l-95 7 77 1 c50 1 97 -4 137 -17z m-234
-1 c-11 -5 -27 -9 -35 -9 -9 0 -8 4 5 9 11 5 27 9 35 9 9 0 8 -4 -5 -9z m-76
-23 c-16 -12 -79 -45 -79 -42 0 7 63 45 74 45 5 0 7 -1 5 -3z m-129 -92 c-24
-25 -46 -45 -49 -45 -3 0 15 20 39 45 24 25 46 45 49 45 3 0 -15 -20 -39 -45z"/>
<path d="M4021 3658 c-14 -23 -14 -23 8 -4 22 20 25 26 13 26 -4 0 -13 -10
-21 -22z"/>
</g>
</svg>
